<mxfile host="Electron" modified="2024-06-27T19:52:18.692Z" agent="Mozilla/5.0 (Windows NT 10.0; Win64; x64) AppleWebKit/537.36 (KHTML, like Gecko) draw.io/22.1.2 Chrome/114.0.5735.289 Electron/25.9.4 Safari/537.36" etag="9Zko68Kxze9UbzBs1mp2" version="22.1.2" type="device">
  <diagram name="Page-1" id="awkf_OdoE4Eta6s4-2FR">
    <mxGraphModel dx="918" dy="585" grid="1" gridSize="10" guides="1" tooltips="1" connect="1" arrows="1" fold="1" page="1" pageScale="1" pageWidth="1169" pageHeight="827" math="0" shadow="0">
      <root>
        <mxCell id="0" />
        <mxCell id="1" parent="0" />
        <mxCell id="S6ToiJVZQJrwTO6xU1Qo-1" value="us-east-1" style="points=[[0,0],[0.25,0],[0.5,0],[0.75,0],[1,0],[1,0.25],[1,0.5],[1,0.75],[1,1],[0.75,1],[0.5,1],[0.25,1],[0,1],[0,0.75],[0,0.5],[0,0.25]];outlineConnect=0;gradientColor=none;html=1;whiteSpace=wrap;fontSize=12;fontStyle=0;container=1;pointerEvents=0;collapsible=0;recursiveResize=0;shape=mxgraph.aws4.group;grIcon=mxgraph.aws4.group_region;strokeColor=#00A4A6;fillColor=none;verticalAlign=top;align=left;spacingLeft=30;fontColor=#147EBA;dashed=1;" vertex="1" parent="1">
          <mxGeometry x="150" y="154" width="690" height="400" as="geometry" />
        </mxCell>
        <mxCell id="S6ToiJVZQJrwTO6xU1Qo-2" value="vpc-01&lt;br&gt;" style="points=[[0,0],[0.25,0],[0.5,0],[0.75,0],[1,0],[1,0.25],[1,0.5],[1,0.75],[1,1],[0.75,1],[0.5,1],[0.25,1],[0,1],[0,0.75],[0,0.5],[0,0.25]];outlineConnect=0;gradientColor=none;html=1;whiteSpace=wrap;fontSize=12;fontStyle=0;container=1;pointerEvents=0;collapsible=0;recursiveResize=0;shape=mxgraph.aws4.group;grIcon=mxgraph.aws4.group_vpc2;strokeColor=#8C4FFF;fillColor=none;verticalAlign=top;align=left;spacingLeft=30;fontColor=#AAB7B8;dashed=0;" vertex="1" parent="S6ToiJVZQJrwTO6xU1Qo-1">
          <mxGeometry x="90" y="40" width="560" height="320" as="geometry" />
        </mxCell>
        <mxCell id="S6ToiJVZQJrwTO6xU1Qo-6" value="Public subnet" style="points=[[0,0],[0.25,0],[0.5,0],[0.75,0],[1,0],[1,0.25],[1,0.5],[1,0.75],[1,1],[0.75,1],[0.5,1],[0.25,1],[0,1],[0,0.75],[0,0.5],[0,0.25]];outlineConnect=0;gradientColor=none;html=1;whiteSpace=wrap;fontSize=12;fontStyle=0;container=1;pointerEvents=0;collapsible=0;recursiveResize=0;shape=mxgraph.aws4.group;grIcon=mxgraph.aws4.group_security_group;grStroke=0;strokeColor=#7AA116;fillColor=#F2F6E8;verticalAlign=top;align=left;spacingLeft=30;fontColor=#248814;dashed=0;" vertex="1" parent="S6ToiJVZQJrwTO6xU1Qo-2">
          <mxGeometry x="80" y="60" width="400" height="240" as="geometry" />
        </mxCell>
        <mxCell id="S6ToiJVZQJrwTO6xU1Qo-7" value="&lt;div style=&quot;color: rgb(204, 204, 204); background-color: rgb(31, 31, 31); font-family: Consolas, &amp;quot;Courier New&amp;quot;, monospace; font-size: 14px; line-height: 19px;&quot;&gt;postgresqldatabase&lt;/div&gt;" style="sketch=0;points=[[0,0,0],[0.25,0,0],[0.5,0,0],[0.75,0,0],[1,0,0],[0,1,0],[0.25,1,0],[0.5,1,0],[0.75,1,0],[1,1,0],[0,0.25,0],[0,0.5,0],[0,0.75,0],[1,0.25,0],[1,0.5,0],[1,0.75,0]];outlineConnect=0;fontColor=#232F3E;fillColor=#C925D1;strokeColor=#ffffff;dashed=0;verticalLabelPosition=bottom;verticalAlign=top;align=center;html=1;fontSize=12;fontStyle=0;aspect=fixed;shape=mxgraph.aws4.resourceIcon;resIcon=mxgraph.aws4.rds;" vertex="1" parent="S6ToiJVZQJrwTO6xU1Qo-6">
          <mxGeometry x="161" y="81" width="78" height="78" as="geometry" />
        </mxCell>
        <mxCell id="S6ToiJVZQJrwTO6xU1Qo-9" value="Security group&lt;br&gt;secgrp-01" style="fillColor=none;strokeColor=#DD3522;verticalAlign=top;fontStyle=0;fontColor=#DD3522;whiteSpace=wrap;html=1;" vertex="1" parent="S6ToiJVZQJrwTO6xU1Qo-6">
          <mxGeometry x="120" y="40" width="160" height="170" as="geometry" />
        </mxCell>
        <mxCell id="S6ToiJVZQJrwTO6xU1Qo-11" value="" style="outlineConnect=0;dashed=0;verticalLabelPosition=bottom;verticalAlign=top;align=center;html=1;shape=mxgraph.aws3.internet_gateway;fillColor=#F58536;gradientColor=none;" vertex="1" parent="S6ToiJVZQJrwTO6xU1Qo-2">
          <mxGeometry x="250.75" y="-30" width="57.25" height="60" as="geometry" />
        </mxCell>
        <mxCell id="S6ToiJVZQJrwTO6xU1Qo-12" style="edgeStyle=orthogonalEdgeStyle;rounded=0;orthogonalLoop=1;jettySize=auto;html=1;entryX=0.5;entryY=1;entryDx=0;entryDy=0;entryPerimeter=0;" edge="1" parent="S6ToiJVZQJrwTO6xU1Qo-2" source="S6ToiJVZQJrwTO6xU1Qo-6" target="S6ToiJVZQJrwTO6xU1Qo-11">
          <mxGeometry relative="1" as="geometry" />
        </mxCell>
        <mxCell id="S6ToiJVZQJrwTO6xU1Qo-13" value="" style="image;aspect=fixed;perimeter=ellipsePerimeter;html=1;align=center;shadow=0;dashed=0;spacingTop=3;image=img/lib/active_directory/internet_cloud.svg;" vertex="1" parent="1">
          <mxGeometry x="464" y="30" width="111.11" height="70" as="geometry" />
        </mxCell>
        <mxCell id="S6ToiJVZQJrwTO6xU1Qo-14" style="edgeStyle=orthogonalEdgeStyle;rounded=0;orthogonalLoop=1;jettySize=auto;html=1;entryX=0.5;entryY=1;entryDx=0;entryDy=0;" edge="1" parent="1" source="S6ToiJVZQJrwTO6xU1Qo-11" target="S6ToiJVZQJrwTO6xU1Qo-13">
          <mxGeometry relative="1" as="geometry" />
        </mxCell>
      </root>
    </mxGraphModel>
  </diagram>
</mxfile>
